STARTFONT 2.1
FONT misc.cyrillic.9
SIZE 22 72 72
FONTBOUNDINGBOX 21 22 0 -4
STARTPROPERTIES 4
FONT_DESCENT 4
FONT_ASCENT 18
DEFAULT_CHAR 1
COPYRIGHT "Copyright (c) 1992 AT&T - All rights reserved."
ENDPROPERTIES
CHARS 89
STARTCHAR ch-1
ENCODING 1
SWIDTH 590 0
DWIDTH 13 0
BBX 13 22 0 -4
BITMAP
000000
000000
318000
7bc000
318000
000000
000000
ffe000
306000
302000
312000
310000
3f0000
312000
312000
302000
306000
ffe000
000000
000000
000000
000000
ENDCHAR
STARTCHAR ch-2
ENCODING 2
SWIDTH 636 0
DWIDTH 14 0
BBX 14 22 0 -4
BITMAP
000000
000000
000001
000000
000003
000000
000000
ffe000
8c2000
8c2000
0c0000
0fe006
0c3003
0c3000
0c3001
0c3000
0db000
3fe000
000001
000000
000000
000000
ENDCHAR
STARTCHAR ch-4
ENCODING 4
SWIDTH 590 0
DWIDTH 13 0
BBX 13 22 -1 -4
BITMAP
000005
000000
000000
000000
000003
000000
000000
1fa000
306000
602000
c02004
fe0000
c7e000
c18000
c02007
602000
304000
1f8000
000004
000000
000000
000000
ENDCHAR
STARTCHAR ch-5
ENCODING 5
SWIDTH 454 0
DWIDTH 10 0
BBX 10 22 0 -4
BITMAP
000005
000000
000000
000000
000003
000000
000000
3d0000
430000
c10000
c00000
780000
3e0000
070000
030006
830000
820000
fc0000
000000
000000
000000
000000
ENDCHAR
STARTCHAR ch-6
ENCODING 6
SWIDTH 318 0
DWIDTH 7 0
BBX 7 22 0 -4
BITMAP
000000
000000
000000
000000
000003
000000
000000
fc0000
300000
300000
300003
300006
300003
300000
300000
300000
300000
fc0000
000003
000000
000000
000000
ENDCHAR
STARTCHAR ch-8
ENCODING 8
SWIDTH 454 0
DWIDTH 10 0
BBX 10 22 0 -4
BITMAP
000000
000000
000000
000000
000003
000000
000000
1f0000
060000
060000
060000
060006
060003
060000
060000
660000
660000
3c0000
000000
000000
000000
000000
ENDCHAR
STARTCHAR ch-9
ENCODING 9
SWIDTH 909 0
DWIDTH 20 0
BBX 20 22 0 -4
BITMAP
000000
000000
000000
000000
000003
000000
000000
0ffc00
063000
063000
063006
063006
063f83
2630c0
7430c6
7430c0
7c30c0
38ff80
000006
000000
000000
000000
ENDCHAR
STARTCHAR ch-10
ENCODING 10
SWIDTH 909 0
DWIDTH 20 0
BBX 20 22 0 -4
BITMAP
000005
000000
000000
000000
000003
000000
000000
fdf800
306000
306004
306006
306000
3fff80
3060c0
3060c6
3060c0
3060c0
fdff00
000004
000000
000000
000000
ENDCHAR
STARTCHAR ch-11
ENCODING 11
SWIDTH 681 0
DWIDTH 15 0
BBX 15 22 0 -4
BITMAP
000000
000000
000000
000000
000003
000000
000000
7fe000
462000
462000
060000
06f006
071803
061800
061800
061800
061800
1f3c00
000000
000000
000000
000000
ENDCHAR
STARTCHAR ch-15
ENCODING 15
SWIDTH 681 0
DWIDTH 15 0
BBX 15 22 0 -4
BITMAP
000000
000000
000000
000000
000003
000000
000000
fcfc00
303000
303000
303006
303006
303003
303000
303006
303000
303000
fffc00
030006
030000
030000
030000
ENDCHAR
STARTCHAR ch-16
ENCODING 16
SWIDTH 590 0
DWIDTH 13 0
BBX 13 22 0 -4
BITMAP
000000
000000
000000
000000
000003
000000
000000
040000
0e0000
0e0004
0e0000
130006
130003
130000
3f8000
218000
40c000
f3e000
000000
000000
000000
000000
ENDCHAR
STARTCHAR ch-17
ENCODING 17
SWIDTH 636 0
DWIDTH 14 0
BBX 14 22 0 -4
BITMAP
000005
000000
000000
000000
000003
000000
000000
ffe000
306000
302000
300006
300000
3fe000
303000
303003
303000
306000
ffc000
000007
000000
000000
000000
ENDCHAR
STARTCHAR ch-18
ENCODING 18
SWIDTH 636 0
DWIDTH 14 0
BBX 14 22 0 -4
BITMAP
000005
000000
000000
000000
000003
000000
000000
ffc000
306000
306000
306000
30e000
3fe000
303000
303000
303000
306000
ffc000
000000
000000
000000
000000
ENDCHAR
STARTCHAR ch-19
ENCODING 19
SWIDTH 500 0
DWIDTH 11 0
BBX 11 22 0 -4
BITMAP
000000
000000
000000
000000
000003
000000
000000
ffc000
30c000
304000
304000
300006
300003
300000
300000
300000
300000
fc0000
000000
000000
000000
000000
ENDCHAR
STARTCHAR ch-20
ENCODING 20
SWIDTH 681 0
DWIDTH 15 0
BBX 15 22 0 -4
BITMAP
000005
000000
000000
000000
000003
000000
000000
1ffc00
063000
063000
063000
043000
043000
0c3000
0c3000
083000
183000
7ffc00
c00c00
000000
000000
000000
ENDCHAR
STARTCHAR ch-21
ENCODING 21
SWIDTH 636 0
DWIDTH 14 0
BBX 14 22 0 -4
BITMAP
000000
000000
000000
000000
000003
000000
000000
fff000
303000
301004
311006
310006
3f0003
310000
311004
301000
303000
fff000
000004
000000
000000
000000
ENDCHAR
STARTCHAR ch-22
ENCODING 22
SWIDTH 863 0
DWIDTH 19 0
BBX 19 22 0 -4
BITMAP
000000
000000
000000
000000
000003
000000
000000
c3f0c0
e0c1c0
10c200
18c600
0ffc06
0ffc03
38c700
30c301
b0c340
f0c3c0
e3f1c0
000001
000000
000000
000000
ENDCHAR
STARTCHAR ch-23
ENCODING 23
SWIDTH 454 0
DWIDTH 10 0
BBX 10 22 0 -4
BITMAP
000000
000000
000000
000000
000003
000000
000000
fe0000
830000
838000
038000
030006
3e0003
030006
038007
838000
830000
fe0007
000000
000000
000000
000003
ENDCHAR
STARTCHAR ch-24
ENCODING 24
SWIDTH 727 0
DWIDTH 16 0
BBX 16 22 0 -4
BITMAP
000000
000000
000000
000000
000003
000000
000000
fc7e00
303800
307800
305803
309806
311803
321800
341803
3c1800
381800
fc7e00
000003
000000
000000
000000
ENDCHAR
STARTCHAR ch-25
ENCODING 25
SWIDTH 727 0
DWIDTH 16 0
BBX 16 22 0 -4
BITMAP
000000
1c7000
1c7000
082000
0fe003
000000
000000
fc7e00
303800
307806
305800
309806
311803
321800
341800
3c1800
381800
fc7e00
000004
000000
000000
000000
ENDCHAR
STARTCHAR ch-26
ENCODING 26
SWIDTH 590 0
DWIDTH 13 0
BBX 13 22 0 -4
BITMAP
000000
000000
000004
000000
000003
000000
000000
fc3000
307000
308006
318000
3f0006
3f0003
31c000
30c000
30d000
30f000
fc7000
000004
000000
000000
000000
ENDCHAR
STARTCHAR ch-27
ENCODING 27
SWIDTH 590 0
DWIDTH 13 0
BBX 13 22 0 -4
BITMAP
000000
000000
000000
000000
000003
000000
000000
3ff000
08c000
08c000
08c000
08c006
08c003
18c000
18c007
d8c000
f0c000
63f000
000000
000000
000000
000000
ENDCHAR
STARTCHAR ch-28
ENCODING 28
SWIDTH 818 0
DWIDTH 18 0
BBX 18 22 0 -4
BITMAP
000000
000000
000000
000000
000003
000000
000000
f80f80
380e00
2c1600
2c1600
262606
262603
262600
234600
234600
218600
f99f80
000000
000000
000000
000000
ENDCHAR
STARTCHAR ch-29
ENCODING 29
SWIDTH 681 0
DWIDTH 15 0
BBX 15 22 0 -4
BITMAP
000000
000000
000000
000000
000003
000000
000000
fcfc00
303000
303007
303000
303006
3ff003
303006
303006
303000
303000
fcfc06
000003
000000
000000
000006
ENDCHAR
STARTCHAR ch-30
ENCODING 30
SWIDTH 545 0
DWIDTH 12 0
BBX 12 22 0 -4
BITMAP
000000
000000
000000
000000
000003
000000
000000
1f0000
318000
60c004
c06000
c06006
c06003
c06000
c06000
60c000
71c000
1f0000
000000
000000
000000
000000
ENDCHAR
STARTCHAR ch-31
ENCODING 31
SWIDTH 681 0
DWIDTH 15 0
BBX 15 22 0 -4
BITMAP
000000
000000
000000
000000
000003
000000
000000
fffc00
303000
303000
303001
303006
303003
303000
303000
303000
303000
fcfc00
000000
000000
000000
000000
ENDCHAR
STARTCHAR ch-32
ENCODING 32
SWIDTH 590 0
DWIDTH 13 0
BBX 13 22 0 -4
BITMAP
000000
000000
000000
000000
000003
000000
000000
ff8000
306000
306004
306000
306006
3f8003
300000
300000
300000
300000
fc0000
000000
000000
000000
000000
ENDCHAR
STARTCHAR ch-33
ENCODING 33
SWIDTH 545 0
DWIDTH 12 0
BBX 12 22 0 -4
BITMAP
000005
000000
000000
000000
000003
000000
000000
1fa000
306000
602000
c02000
c00000
c00000
c00000
c02000
602000
304000
1f8000
000000
000000
000000
000000
ENDCHAR
STARTCHAR ch-34
ENCODING 34
SWIDTH 500 0
DWIDTH 11 0
BBX 11 22 0 -4
BITMAP
000000
000000
000000
000000
000003
000000
000000
ffc000
8c4000
8c4000
8c4000
0c0006
0c0003
0c0000
0c0000
0c0000
0c0000
3f0000
000000
000000
000000
000000
ENDCHAR
STARTCHAR ch-35
ENCODING 35
SWIDTH 545 0
DWIDTH 12 0
BBX 12 22 0 -4
BITMAP
000000
000000
000000
000000
000003
000000
000000
f0e000
60c000
308000
318004
190006
0e0003
0e0000
c40004
cc0000
880000
700000
000004
000000
000000
000000
ENDCHAR
STARTCHAR ch-36
ENCODING 36
SWIDTH 545 0
DWIDTH 12 0
BBX 12 22 0 -4
BITMAP
000005
000000
000000
000000
000003
000000
000000
3f8000
0e0000
0e0000
3f8000
ce6000
ce6000
ce6000
3f8001
0e0000
0e0000
3f8000
000004
000000
000000
000000
ENDCHAR
STARTCHAR ch-37
ENCODING 37
SWIDTH 545 0
DWIDTH 12 0
BBX 12 22 0 -4
BITMAP
000005
000000
000000
000000
000003
000000
000000
fbe000
310000
390000
1a0006
0c0000
060000
0e0000
130006
318000
218000
f3e000
000007
000000
000000
000000
ENDCHAR
STARTCHAR ch-38
ENCODING 38
SWIDTH 727 0
DWIDTH 16 0
BBX 16 22 0 -4
BITMAP
000000
000000
000000
000000
000003
000000
000000
fcfc00
303000
303000
303001
303006
303003
303000
303004
303000
303000
fffc00
000c03
000200
000000
000000
ENDCHAR
STARTCHAR ch-39
ENCODING 39
SWIDTH 727 0
DWIDTH 16 0
BBX 16 22 0 -4
BITMAP
000000
000000
000000
000000
000003
000000
000000
fc7e00
301800
301804
301800
301806
303803
1cd800
079800
001800
001800
007e00
000000
000000
000000
000000
ENDCHAR
STARTCHAR ch-40
ENCODING 40
SWIDTH 954 0
DWIDTH 21 0
BBX 21 22 0 -4
BITMAP
000000
000000
000000
000000
000003
000000
000000
fdfbf0
3060c0
3060c6
3060c0
3060c6
3060c3
3060c0
3060c0
3060c0
3060c0
fffff0
000007
000000
000000
000000
ENDCHAR
STARTCHAR ch-41
ENCODING 41
SWIDTH 954 0
DWIDTH 21 0
BBX 21 22 0 -4
BITMAP
000005
000000
000000
000000
000003
000000
000000
fdfbf0
3060c0
3060c3
3060c0
3060c0
3060c0
3060c0
3060c0
3060c0
3060c0
fffff0
000030
000008
000000
000000
ENDCHAR
STARTCHAR ch-42
ENCODING 42
SWIDTH 681 0
DWIDTH 15 0
BBX 15 22 0 -4
BITMAP
000000
000000
000000
000000
000003
000000
000000
ff0000
c60000
860003
860000
060006
07f803
060c00
060c00
060c00
061c00
1ff000
000000
000000
000000
000000
ENDCHAR
STARTCHAR ch-43
ENCODING 43
SWIDTH 863 0
DWIDTH 19 0
BBX 19 22 0 -4
BITMAP
000000
000000
000000
000000
000003
000000
000000
fc0fc0
300300
300300
300306
300306
3fe303
303300
303306
303300
306300
ffcfc4
000006
000000
000000
000004
ENDCHAR
STARTCHAR ch-44
ENCODING 44
SWIDTH 636 0
DWIDTH 14 0
BBX 14 22 0 -4
BITMAP
000000
000000
000000
000000
000003
000000
000000
fc0000
300000
300007
300000
300006
3fe003
303003
303000
303000
306000
ffc003
000000
000000
000000
000003
ENDCHAR
STARTCHAR ch-45
ENCODING 45
SWIDTH 545 0
DWIDTH 12 0
BBX 12 22 0 -4
BITMAP
000000
000000
000000
000000
000003
000000
000000
bf0000
c18000
80c000
00e000
00e006
7fe003
00e000
00e000
80c000
c18000
3f0000
000000
000000
000000
000000
ENDCHAR
STARTCHAR ch-46
ENCODING 46
SWIDTH 863 0
DWIDTH 19 0
BBX 19 22 0 -4
BITMAP
000000
000000
000000
000000
000003
000000
000000
fc3e00
306300
30c180
3180c1
3180c6
3f80c3
3180c0
3180c0
30c180
30e380
fc3e00
000000
000000
000000
000000
ENDCHAR
STARTCHAR ch-47
ENCODING 47
SWIDTH 636 0
DWIDTH 14 0
BBX 14 22 0 -4
BITMAP
000000
000000
000000
000000
000003
000000
000000
0ff800
186000
306006
306000
186006
0fe003
186000
186001
186000
986000
71f800
000001
000000
000000
000003
ENDCHAR
STARTCHAR ch-48
ENCODING 48
SWIDTH 454 0
DWIDTH 10 0
BBX 10 22 0 -4
BITMAP
000000
000000
000000
000000
000003
000000
000000
000000
000000
000000
000000
3c0006
660003
3e0000
660000
c60000
c60000
7f0000
000000
000000
000000
000000
ENDCHAR
STARTCHAR ch-49
ENCODING 49
SWIDTH 409 0
DWIDTH 9 0
BBX 9 22 0 -4
BITMAP
000005
000000
000000
000000
000003
000000
000000
020000
7e0000
c60000
800000
fc0000
420000
c30000
c30004
c30000
420000
3c0000
000006
000000
000000
000000
ENDCHAR
STARTCHAR ch-50
ENCODING 50
SWIDTH 409 0
DWIDTH 9 0
BBX 9 22 0 -4
BITMAP
000005
000000
000000
000000
000003
000000
000000
000000
000000
000000
000006
fc0000
660000
660000
7e0004
660000
660000
fc0000
000003
000000
000000
000000
ENDCHAR
STARTCHAR ch-51
ENCODING 51
SWIDTH 363 0
DWIDTH 8 0
BBX 8 22 0 -4
BITMAP
000000
000000
000000
000000
000003
000000
000000
000000
000000
000000
000000
fe0006
620003
620000
600004
600000
600000
f00000
000006
000000
000000
000000
ENDCHAR
STARTCHAR ch-52
ENCODING 52
SWIDTH 500 0
DWIDTH 11 0
BBX 11 22 0 -4
BITMAP
000000
000000
000000
000000
000003
000000
000000
000000
000000
000000
000000
7f0006
360003
260000
260006
260000
660000
ff8000
c18000
000000
000000
000000
ENDCHAR
STARTCHAR ch-53
ENCODING 53
SWIDTH 454 0
DWIDTH 10 0
BBX 10 22 0 -4
BITMAP
000000
000000
000000
000000
000003
000000
000000
000000
000000
000000
000000
3c0006
620003
c30000
ff0007
c00000
610000
3e0000
000006
000000
000000
000000
ENDCHAR
STARTCHAR ch-54
ENCODING 54
SWIDTH 590 0
DWIDTH 13 0
BBX 13 22 0 -4
BITMAP
000000
000000
000000
000000
000003
000000
000000
000000
000000
000000
000000
cf3006
e67003
1f8000
3fc004
666000
e67000
cf3000
000007
000000
000000
000000
ENDCHAR
STARTCHAR ch-55
ENCODING 55
SWIDTH 409 0
DWIDTH 9 0
BBX 9 22 0 -4
BITMAP
000005
000000
000000
000000
000003
000000
000000
000000
000000
000000
000000
7c0000
c60000
0e0000
1c0007
0e0000
c60000
7c0000
000007
000000
000000
000000
ENDCHAR
STARTCHAR ch-56
ENCODING 56
SWIDTH 545 0
DWIDTH 12 0
BBX 12 22 0 -4
BITMAP
000000
000000
000000
000000
000003
000000
000000
000000
000000
000000
000000
f3c006
638003
678000
6d8004
798000
718000
f3c000
000004
000000
000000
000000
ENDCHAR
STARTCHAR ch-57
ENCODING 57
SWIDTH 545 0
DWIDTH 12 0
BBX 12 22 0 -4
BITMAP
000005
000000
000000
000000
000003
000000
330000
330000
1e0000
000000
000000
f3c000
638000
678000
6d8003
798000
718000
f3c000
000005
000000
000000
000000
ENDCHAR
STARTCHAR ch-58
ENCODING 58
SWIDTH 454 0
DWIDTH 10 0
BBX 10 22 0 -4
BITMAP
000000
000000
000000
000000
000003
000000
000000
000000
000000
000000
000006
f30006
670003
780000
7c0003
660000
670000
f30000
000005
000000
000000
000000
ENDCHAR
STARTCHAR ch-59
ENCODING 59
SWIDTH 454 0
DWIDTH 10 0
BBX 10 22 0 -4
BITMAP
000000
000000
000000
000000
000003
000000
000000
000000
000000
000000
000000
7f8006
130003
130000
130003
930000
f30000
678000
000004
000000
000000
000000
ENDCHAR
STARTCHAR ch-60
ENCODING 60
SWIDTH 590 0
DWIDTH 13 0
BBX 13 22 0 -4
BITMAP
000000
000000
000000
000000
000003
000000
000000
000000
000000
000000
000000
f1e006
71c003
5ac000
5ac007
5ac000
4cc000
ede000
000003
000000
000000
000000
ENDCHAR
STARTCHAR ch-61
ENCODING 61
SWIDTH 500 0
DWIDTH 11 0
BBX 11 22 0 -4
BITMAP
000005
000000
000000
000000
000003
000000
000000
000000
000000
000000
000000
f78000
630000
630000
7f0001
630000
630000
f78000
000002
000000
000000
000000
ENDCHAR
STARTCHAR ch-62
ENCODING 62
SWIDTH 363 0
DWIDTH 8 0
BBX 8 22 0 -4
BITMAP
000005
000000
000000
000000
000003
000000
000000
000000
000000
000000
000000
7c0000
c60000
c60000
c60007
c60000
c60000
7c0000
000007
000000
000000
000000
ENDCHAR
STARTCHAR ch-63
ENCODING 63
SWIDTH 500 0
DWIDTH 11 0
BBX 11 22 0 -4
BITMAP
000000
000000
000000
000000
000003
000000
000000
000000
000000
000000
000000
ff8006
630003
630000
630004
630000
630000
f78000
000006
000000
000000
000000
ENDCHAR
STARTCHAR ch-64
ENCODING 64
SWIDTH 409 0
DWIDTH 9 0
BBX 9 22 0 -4
BITMAP
000000
000000
000000
000000
000003
000000
000000
000000
000000
000000
000000
fc0006
620003
630000
630007
630000
620000
7c0000
600003
600000
f00000
000000
ENDCHAR
STARTCHAR ch-65
ENCODING 65
SWIDTH 363 0
DWIDTH 8 0
BBX 8 22 0 -4
BITMAP
000005
000000
000000
000000
000003
000000
000000
000000
000000
000000
000000
7c0000
e60000
c00000
c00004
c00000
e60000
7c0000
000003
000000
000000
000000
ENDCHAR
STARTCHAR ch-66
ENCODING 66
SWIDTH 409 0
DWIDTH 9 0
BBX 9 22 0 -4
BITMAP
000000
000000
000000
000000
000003
000000
000000
000000
000000
000000
000000
ff0006
990003
990000
180004
180000
180000
7e0000
000000
000000
000000
000000
ENDCHAR
STARTCHAR ch-67
ENCODING 67
SWIDTH 454 0
DWIDTH 10 0
BBX 10 22 0 -4
BITMAP
000000
000000
000000
000000
000003
000000
000000
000000
000000
000000
000000
f38006
320003
320000
3e0007
1c0000
1c0000
080000
080000
d00000
e00000
000000
ENDCHAR
STARTCHAR ch-68
ENCODING 68
SWIDTH 500 0
DWIDTH 11 0
BBX 11 22 0 -4
BITMAP
000000
000000
000000
000000
000003
000000
000000
0c0000
0c0000
0c0000
0c0000
7f8006
ccc003
ccc000
8c4003
ccc000
ccc000
7f8000
0c0006
0c0000
0c0000
000000
ENDCHAR
STARTCHAR ch-69
ENCODING 69
SWIDTH 363 0
DWIDTH 8 0
BBX 8 22 0 -4
BITMAP
000005
000000
000000
000000
000003
000000
000000
000000
000000
000000
000004
e70000
660000
3c0000
180007
380000
4c0000
e70000
000004
000000
000000
000000
ENDCHAR
STARTCHAR ch-70
ENCODING 70
SWIDTH 500 0
DWIDTH 11 0
BBX 11 22 0 -4
BITMAP
000005
000000
000000
000000
000003
000000
000000
000000
000000
000000
000000
f78000
630000
630000
630007
630000
630000
ff8000
018000
00c000
000000
000000
ENDCHAR
STARTCHAR ch-71
ENCODING 71
SWIDTH 500 0
DWIDTH 11 0
BBX 11 22 0 -4
BITMAP
000005
000000
000000
000000
000003
000000
000000
000000
000000
000000
000000
f78000
630000
630000
630007
3f0000
030000
078000
000003
000000
000000
000000
ENDCHAR
STARTCHAR ch-72
ENCODING 72
SWIDTH 727 0
DWIDTH 16 0
BBX 16 22 0 -4
BITMAP
000000
000000
000000
000000
000003
000000
000000
000000
000000
000000
000000
f7bc06
631803
631800
631807
631800
631800
fffc00
000003
000000
000000
000000
ENDCHAR
STARTCHAR ch-73
ENCODING 73
SWIDTH 727 0
DWIDTH 16 0
BBX 16 22 0 -4
BITMAP
000005
000000
000000
000000
000003
000000
000000
000000
000000
000000
000000
f7bc00
631800
631800
631807
631800
631800
fffc00
000e03
000700
000000
000000
ENDCHAR
STARTCHAR ch-74
ENCODING 74
SWIDTH 454 0
DWIDTH 10 0
BBX 10 22 0 -4
BITMAP
000005
000000
000000
000000
000003
000000
000000
000000
000000
000000
000000
fc0000
980000
980000
1f8007
198000
198000
3f0000
000003
000000
000000
000000
ENDCHAR
STARTCHAR ch-75
ENCODING 75
SWIDTH 590 0
DWIDTH 13 0
BBX 13 22 0 -4
BITMAP
000005
000000
000000
000000
000003
000000
000000
000000
000000
000000
000000
f1e000
60c000
60c000
7ec004
66c000
66c000
fde000
000007
000000
000000
000000
ENDCHAR
STARTCHAR ch-76
ENCODING 76
SWIDTH 409 0
DWIDTH 9 0
BBX 9 22 0 -4
BITMAP
000005
000000
000000
000000
000003
000000
000000
000000
000000
000000
000000
f00000
600000
600000
7e0001
660000
660000
fc0000
000006
000000
000000
000000
ENDCHAR
STARTCHAR ch-77
ENCODING 77
SWIDTH 363 0
DWIDTH 8 0
BBX 8 22 0 -4
BITMAP
000005
000000
000000
000000
000003
000000
000000
000000
000000
000000
000000
f80000
8e0000
060000
7e0000
060000
8e0000
f80000
000006
000000
000000
000000
ENDCHAR
STARTCHAR ch-78
ENCODING 78
SWIDTH 590 0
DWIDTH 13 0
BBX 13 22 0 -4
BITMAP
000005
000000
000000
000000
000003
000000
000000
000000
000000
000000
000000
f1c000
622000
663000
7e3000
663000
622000
f1c000
000006
000000
000000
000000
ENDCHAR
STARTCHAR ch-79
ENCODING 79
SWIDTH 500 0
DWIDTH 11 0
BBX 11 22 0 -4
BITMAP
000005
000000
000000
000000
000003
000000
000000
000000
000000
000000
000000
1f8000
330000
330000
1f0001
330000
b30000
e78000
000006
000000
000000
000000
ENDCHAR
STARTCHAR ch-81
ENCODING 81
SWIDTH 454 0
DWIDTH 10 0
BBX 10 22 0 -4
BITMAP
000000
000000
000000
000000
000003
000000
000000
660000
660000
000000
000000
3e0006
630003
c10000
ff0007
c00000
630000
3e0000
000007
000000
000000
000000
ENDCHAR
STARTCHAR ch-82
ENCODING 82
SWIDTH 500 0
DWIDTH 11 0
BBX 11 22 0 -4
BITMAP
000000
000000
000000
000000
000003
000000
700000
300000
7f8000
300000
300006
3f0006
308003
30c000
30c006
30c000
30c000
788000
018007
030000
0e0000
000000
ENDCHAR
STARTCHAR ch-84
ENCODING 84
SWIDTH 454 0
DWIDTH 10 0
BBX 10 22 0 -4
BITMAP
000000
000000
000000
000000
000003
000000
000000
000000
000000
000000
000007
1f0006
210003
7c0000
7f0007
660000
210000
1e0000
000000
000000
000000
000000
ENDCHAR
STARTCHAR ch-85
ENCODING 85
SWIDTH 318 0
DWIDTH 7 0
BBX 7 22 0 -4
BITMAP
000005
000000
000000
000000
000003
000000
000000
000000
000000
000000
000000
380000
400000
600000
380007
080000
080000
700000
000007
000000
000000
000000
ENDCHAR
STARTCHAR ch-86
ENCODING 86
SWIDTH 227 0
DWIDTH 5 0
BBX 5 22 0 -4
BITMAP
000005
000000
000000
000000
000003
600000
e00000
600000
000000
000000
000000
e00000
600000
600000
600000
600000
600000
f00000
000000
000000
000000
000000
ENDCHAR
STARTCHAR ch-89
ENCODING 89
SWIDTH 590 0
DWIDTH 13 0
BBX 13 22 0 -4
BITMAP
000000
000000
000000
000000
000003
000000
000000
000000
000000
000000
000000
3f8006
130003
130000
f3e000
f36000
f36000
67c000
000000
000000
000000
000000
ENDCHAR
STARTCHAR ch-90
ENCODING 90
SWIDTH 636 0
DWIDTH 14 0
BBX 14 22 0 -4
BITMAP
000000
000000
000000
000000
000003
000000
000000
000000
000000
000000
000000
f78006
630003
630000
7ff007
633000
633000
f7e000
000003
000000
000000
000000
ENDCHAR
STARTCHAR ch-91
ENCODING 91
SWIDTH 545 0
DWIDTH 12 0
BBX 12 22 0 -4
BITMAP
000000
000000
000000
000000
000003
000000
e00000
600000
ff0000
600000
600000
6f0006
718003
618000
618007
618000
618000
f3c000
000007
000000
000000
000000
ENDCHAR
STARTCHAR ch-95
ENCODING 95
SWIDTH 454 0
DWIDTH 10 0
BBX 10 22 0 -4
BITMAP
000000
000000
000000
000000
000003
000000
000000
000000
000000
000000
000007
f78006
630003
630000
630007
630000
630000
ff8000
0c0001
0c0000
0c0000
000000
ENDCHAR
STARTCHAR ch-98
ENCODING 98
SWIDTH 727 0
DWIDTH 16 0
BBX 16 22 0 -4
BITMAP
000000
000000
000000
000000
000003
000000
7e0000
180000
ffe000
982000
180000
1fe006
183003
181800
181807
181800
183000
7fe000
000003
000000
000000
000000
ENDCHAR
STARTCHAR ch-99
ENCODING 99
SWIDTH 545 0
DWIDTH 12 0
BBX 12 22 0 -4
BITMAP
000000
000000
000000
000000
000003
000000
480000
300000
300000
fc0000
300007
300006
3f0003
31c000
30c007
30c000
31c000
7f8000
000000
000000
000000
000000
ENDCHAR
STARTCHAR ch-114
ENCODING 114
SWIDTH 590 0
DWIDTH 13 0
BBX 13 22 0 -4
BITMAP
000000
000000
000000
000000
000003
000000
000000
0f0000
198000
108000
30c000
fff006
fff003
b0d000
30c000
108000
198000
0f0000
000000
000000
000000
000000
ENDCHAR
STARTCHAR ch-115
ENCODING 115
SWIDTH 454 0
DWIDTH 10 0
BBX 10 22 0 -4
BITMAP
000000
000000
000000
000000
000003
000000
000000
000000
000000
000000
000001
1c0006
360003
ff8000
ff8007
b68000
360000
1c0000
000000
000000
000000
000000
ENDCHAR
STARTCHAR ch-116
ENCODING 116
SWIDTH 636 0
DWIDTH 14 0
BBX 14 22 0 -4
BITMAP
000000
000000
000000
000000
000003
000000
000000
f83000
305000
305000
188000
188006
188003
0d0000
0d0004
0e0000
060000
040000
000007
000000
000000
000000
ENDCHAR
STARTCHAR ch-117
ENCODING 117
SWIDTH 454 0
DWIDTH 10 0
BBX 10 22 0 -4
BITMAP
000000
000000
000000
000000
000003
000000
000000
000000
000000
000000
000000
f30006
330003
370000
340000
1c0000
180000
180000
000005
000000
000000
000000
ENDCHAR
ENDFONT
